<svg xmlns="http://www.w3.org/2000/svg">
  <symbol id="chevron-down" viewBox="0 0 24 24">
    <path
      d="m6 9 6 6 6-6"
      fill="none"
      stroke="currentColor"
      stroke-width="2"
      stroke-linecap="round"
      stroke-linejoin="round"
    />
  </symbol>
  <symbol id="search" viewBox="0 0 64 64">
    <circle cx="27" cy="27" r="17" fill="none" stroke="currentColor" stroke-width="6" />
    <path d="m40 40 15 15" stroke="currentColor" stroke-width="6" stroke-linecap="round" />
  </symbol>
  <symbol id="bag" viewBox="0 0 64 64">
    <rect x="12" y="21" width="40" height="35" rx="7" fill="currentColor" />
    <path d="M23 24V15a9 9 0 0 1 18 0v9" fill="none" stroke="currentColor" stroke-width="5" />
  </symbol>
  <symbol id="video" viewBox="0 0 64 64">
    <rect x="4" y="13" width="56" height="38" rx="12" fill="currentColor" />
    <path d="m27 23 16 9-16 9z" fill="white" />
  </symbol>
  <symbol id="contact" viewBox="0 0 64 64">
    <circle cx="26" cy="20" r="11" fill="currentColor" />
    <path d="M7 53v-7a19 19 0 0 1 38 0v7" fill="currentColor" />
    <circle cx="47" cy="45" r="13" fill="white" />
    <path
      d="m40 45 5 5 9-11"
      fill="none"
      stroke="currentColor"
      stroke-width="5"
      stroke-linecap="round"
      stroke-linejoin="round"
    />
  </symbol>
  <symbol id="chart" viewBox="0 0 64 64">
    <rect x="7" y="35" width="12" height="22" rx="4" fill="currentColor" />
    <rect x="26" y="22" width="12" height="35" rx="4" fill="currentColor" />
    <rect x="45" y="7" width="12" height="50" rx="4" fill="currentColor" />
  </symbol>
  <symbol id="phone" viewBox="0 0 64 64">
    <rect
      x="17"
      y="4"
      width="30"
      height="56"
      rx="6"
      fill="none"
      stroke="currentColor"
      stroke-width="5"
    />
    <path d="M28 52h8M27 11h10" stroke="currentColor" stroke-width="4" stroke-linecap="round" />
  </symbol>
  <symbol id="cursor" viewBox="0 0 64 64">
    <path d="m15 9 38 28-19 3-8 17z" fill="currentColor" />
    <path d="m38 39 12 16" stroke="currentColor" stroke-width="6" stroke-linecap="round" />
  </symbol>
  <symbol id="spark" viewBox="0 0 64 64">
    <path d="M32 3Q30 28 3 32Q30 34 32 61Q34 34 61 32Q34 28 32 3" fill="currentColor" />
  </symbol>
  <symbol id="bell" viewBox="0 0 64 64">
    <path d="M13 45h38l-5-9V24a14 14 0 0 0-28 0v12z" fill="currentColor" />
    <path d="M25 51a7 7 0 0 0 14 0" fill="currentColor" />
  </symbol>
  <symbol id="arrow" viewBox="0 0 64 64">
    <path
      d="M9 32h43M36 15l17 17-17 17"
      fill="none"
      stroke="currentColor"
      stroke-width="5"
      stroke-linecap="round"
      stroke-linejoin="round"
    />
  </symbol>
  <symbol id="check" viewBox="0 0 64 64">
    <circle cx="32" cy="32" r="27" fill="currentColor" />
    <path
      d="m17 32 10 10 21-22"
      fill="none"
      stroke="white"
      stroke-width="5"
      stroke-linecap="round"
      stroke-linejoin="round"
    />
  </symbol>
  <symbol id="document" viewBox="0 0 64 64">
    <rect
      x="14"
      y="6"
      width="36"
      height="52"
      rx="5"
      fill="none"
      stroke="currentColor"
      stroke-width="5"
    />
    <path
      d="M23 21h18M23 31h18M23 41h13"
      stroke="currentColor"
      stroke-width="4"
      stroke-linecap="round"
    />
  </symbol>
  <symbol id="database" viewBox="0 0 64 64">
    <ellipse cx="32" cy="13" rx="20" ry="8" fill="none" stroke="currentColor" stroke-width="4" />
    <path
      d="M12 13v35c0 12 40 12 40 0V13M12 25c0 12 40 12 40 0M12 37c0 12 40 12 40 0"
      fill="none"
      stroke="currentColor"
      stroke-width="4"
    />
  </symbol>
  <symbol id="settings" viewBox="0 0 64 64">
    <path
      d="m26 5 12 0 2 8 7 4 8-2 6 10-6 6v8l5 6-6 10-8-2-7 4-2 7H25l-2-8-7-4-8 2-6-10 6-6v-8l-5-6 6-10 8 2 7-4z"
      fill="currentColor"
    />
    <circle cx="32" cy="34" r="11" fill="white" />
  </symbol>
</svg>
